<?xml version="1.0" encoding="utf-8"?>
<!-- Generator: Adobe Illustrator 17.0.0, SVG Export Plug-In . SVG Version: 6.00 Build 0)  -->
<!DOCTYPE svg PUBLIC "-//W3C//DTD SVG 1.1//EN" "http://www.w3.org/Graphics/SVG/1.1/DTD/svg11.dtd">
<svg version="1.1" id="Layer_1" xmlns="http://www.w3.org/2000/svg" xmlns:xlink="http://www.w3.org/1999/xlink" x="0px" y="0px"
	 width="615px" height="235px" viewBox="31.5 87.5 615 235" enable-background="new 31.5 87.5 615 235" xml:space="preserve">
<path d="M233.19,484.884"/>
<g>
	<g>
		<polygon fill="#FF7300" points="485.739,124.544 561.092,113.092 491.299,133.903 525.367,154.68 468.618,134.329 
			491.085,103.366 		"/>
		<polygon fill="#FF7300" points="486.497,127.073 561.85,115.621 492.056,136.432 526.125,157.209 469.376,136.858 
			491.842,105.894 		"/>
		<polygon fill="#F2F200" points="489.912,126.877 551.341,117.541 494.444,134.506 522.217,151.444 475.954,134.854 
			494.269,109.611 		"/>
		<polygon fill="#F2F200" points="486.253,130.517 568.527,118.013 492.323,140.735 529.52,163.42 467.559,141.201 492.089,107.393 
					"/>
	</g>
	<g>
		<path fill="#8E5928" stroke="#020202" stroke-miterlimit="10" d="M265.713,181.152c0,0-17.99-8.398-19.253,11.079
			c0,0,6.448,0.097-10.498,38.574c0,0-26.195,61.038-18.03,80.695l61.488-13.462c0,0-21.799-57.364,8.84-71.999
			C288.259,226.038,295.417,206.24,265.713,181.152z"/>
		<path d="M217.931,311.499c0,0,9.153-16.115,61.488-13.462C279.419,298.038,277.364,308.221,217.931,311.499z"/>
		<path fill="#663914" stroke="#020202" stroke-miterlimit="10" d="M264.854,291.145c0,0-22.649,2.64-34.722,4.807
			c0,0,7.189-58.902,16.151-71.031c0,0,3.067-11.808,13.183-10.239c0,0,9.764,2.608,5.969,14.516
			C265.435,229.198,261.706,273.764,264.854,291.145z"/>
		<circle cx="254.023" cy="246.863" r="4.657"/>
		
			<linearGradient id="SVGID_1_" gradientUnits="userSpaceOnUse" x1="371.3129" y1="107.8729" x2="374.3787" y2="338.5737" gradientTransform="matrix(0.9991 0.0414 -0.0414 0.9991 9.069 -45.3152)">
			<stop  offset="0.0025" style="stop-color:#494647"/>
			<stop  offset="0.5594" style="stop-color:#FFFFFF"/>
			<stop  offset="0.8298" style="stop-color:#787676"/>
			<stop  offset="1" style="stop-color:#000000"/>
		</linearGradient>
		<path fill="url(#SVGID_1_)" stroke="#020202" stroke-miterlimit="10" d="M476.406,124.268l-3.532-5.45l-12.059-1.3l-0.299,4.991
			l-75.407,9.449l-2.562-0.635l-59.65,5.288l-2.48-3.616l-16.997,2.353l-3.444,10.87c0,0-7.135-1.487-8.338,4.124l-7.971-0.382
			c0,0-24.909,0.973-3.426,4.928c0,0,8.449,7.359,4.265,12.888c0,0-20.881,9.219-18.793,13.375l22.547,44.887
			c0,0,13.249-4.399,22.071,9.273c0,0,7.641,30.168,56.025,0.703c0,0,9.675-8.763,5.88-29.025c0,0,9.19-8.696,17.714-7.896
			l1.054-35.286l85.956-11.899c0,0,4.169-2.062,1.704-9.145c0,0,0.295-0.482,0.683-1.308
			C480.842,138.264,483.72,129.936,476.406,124.268z M346.747,240.957c0,0-25.828,10.062-32.407-12.439
			c0,0-1.716-8.821,4.612-13.162c0,0,7.987-3.086,12.462,4.214c0,0,6.993,18.335,21.677,13.579c0,0-21.453-1.237-15.184-23.882
			c0,0,18.2-7.964,29.511,5.813C367.416,215.08,369.904,233.049,346.747,240.957z"/>
		
			<linearGradient id="SVGID_2_" gradientUnits="userSpaceOnUse" x1="300.043" y1="428.3046" x2="300.043" y2="453.6936" gradientTransform="matrix(0.9905 -0.1372 -0.1372 -0.9905 50.1431 634.7637)">
			<stop  offset="0.0025" style="stop-color:#494647"/>
			<stop  offset="0.5594" style="stop-color:#FFFFFF"/>
			<stop  offset="0.8298" style="stop-color:#787676"/>
			<stop  offset="1" style="stop-color:#000000"/>
		</linearGradient>
		<path fill="url(#SVGID_2_)" stroke="#020202" stroke-miterlimit="10" d="M284.505,167.776c0,0,5.092-10.178-12.011-14.29
			c0,0-5.861-3.895,13.269-3.427l5.874,0.281c0,0-0.067-5.628,8.338-4.124C299.976,146.218,296.283,161.712,284.505,167.776z"/>
	</g>
</g>
<g id="Layer_1_1_">
	<g>
		<g>
			<path fill="none" stroke="#FFFF00" stroke-width="3" stroke-miterlimit="10" d="M263.42,228.011l-0.69-15.194l-20.028,0.69
				l22.1-28.661l0.69-18.302h-50.416l-0.69,15.194l-11.741,14.503l-14.503-28.316h-18.301l-11.396-13.122h-25.553l-13.813,20.719
				l1.382,37.293l15.884,13.813h-26.934l2.072-35.913l-19.338-15.885l9.669-11.741l-1.382-24.172l-33.15-4.144l6.215,66.3h-3.108
				l3.108,33.841h15.885l13.122-5.525l8.287,5.525h161.607V228.7L263.42,228.011z M85.736,218.832l-0.497-23.972
				C106.112,210.416,85.736,218.832,85.736,218.832z M81.786,163.782v-11.741h6.454l3.001,8.978L81.786,163.782z M148.46,208.933
				h-7.149v-31.078c0,0,1.224-7.862,7.149,0C160.893,194.352,148.46,208.933,148.46,208.933z M188.143,223.176h-33.15
				c18.647-3.453,20.719-38.33,20.719-38.33l12.431,19.165V223.176L188.143,223.176z M223.364,225.939h-11.05v-17.266l16.92-24.364
				h16.92l-22.79,28.508L223.364,225.939L223.364,225.939z"/>
			<path fill="#ED1C24" stroke="#FFFF00" stroke-width="3" stroke-miterlimit="10" d="M263.42,228.011l-0.69-15.194l-20.028,0.69
				l22.1-28.661l0.69-18.302h-50.416l-0.69,15.194l-11.741,14.503l-14.503-28.316h-18.301l-11.396-13.122h-25.553l-13.813,20.719
				l1.382,37.293l15.884,13.813h-26.934l2.072-35.913l-19.338-15.885l9.669-11.741l-1.382-24.172l-33.15-4.144l6.215,66.3h-3.108
				l3.108,33.841h15.885l13.122-5.525l8.287,5.525h161.607V228.7L263.42,228.011z M85.736,218.832l-0.497-23.972
				C106.112,210.416,85.736,218.832,85.736,218.832z M81.786,163.782v-11.741h6.454l3.001,8.978L81.786,163.782z M148.46,208.933
				h-7.149v-31.078c0,0,1.224-7.862,7.149,0C160.893,194.352,148.46,208.933,148.46,208.933z M188.143,223.176h-33.15
				c18.647-3.453,20.719-38.33,20.719-38.33l12.431,19.165V223.176L188.143,223.176z M223.364,225.939h-11.05v-17.266l16.92-24.364
				h16.92l-22.79,28.508L223.364,225.939L223.364,225.939z"/>
		</g>
		<g>
			<polygon fill="none" stroke="#FFFF00" stroke-width="3" stroke-miterlimit="10" points="299.908,137.763 299.908,186.267 
				315.164,186.042 314.748,166.112 377.427,187.374 377.427,132.554 358.601,138.87 358.823,167.663 			"/>
			<polygon fill="#ED1C24" stroke="#FFFF00" stroke-width="3" stroke-miterlimit="10" points="299.908,137.763 299.908,186.267 
				315.164,186.042 314.748,166.112 377.427,187.374 377.427,132.554 358.601,138.87 358.823,167.663 			"/>
		</g>
		<g>
			<polygon fill="none" stroke="#FFFF00" stroke-width="3" stroke-miterlimit="10" points="294.372,196.345 294.372,209.855 
				301.902,209.855 301.902,234.882 317.848,234.882 317.848,210.519 325.62,210.391 325.513,234.916 340.525,234.848 
				340.265,220.678 350.639,220.504 350.85,234.882 382.078,234.916 382.078,227.164 365.91,226.909 365.91,219.822 382.078,219.6 
				382.078,213.842 365.91,213.842 365.91,207.64 381.636,207.419 381.236,196.345 350.639,196.345 350.812,211.415 
				335.778,211.262 335.732,196.345 			"/>
			<polygon fill="#ED1C24" stroke="#FFFF00" stroke-width="3" stroke-miterlimit="10" points="294.372,196.345 294.372,209.855 
				301.902,209.855 301.902,234.882 317.848,234.882 317.848,210.519 325.62,210.391 325.513,234.916 340.525,234.848 
				340.265,220.678 350.639,220.504 350.85,234.882 382.078,234.916 382.078,227.164 365.91,226.909 365.91,219.822 382.078,219.6 
				382.078,213.842 365.91,213.842 365.91,207.64 381.636,207.419 381.236,196.345 350.639,196.345 350.812,211.415 
				335.778,211.262 335.732,196.345 			"/>
		</g>
		<g>
			<polygon fill="none" stroke="#FFFF00" stroke-width="3" stroke-miterlimit="10" points="411.769,146.754 411.769,234.916 
				423.672,234.916 423.672,199.149 441.9,199.149 441.9,234.916 452.688,234.916 452.688,151.963 443.759,152.334 443.017,187.632 
				422.556,187.632 422.556,146.754 			"/>
			<polygon fill="#ED1C24" stroke="#FFFF00" stroke-width="3" stroke-miterlimit="10" points="411.769,146.754 411.769,234.916 
				423.672,234.916 423.672,199.149 441.9,199.149 441.9,234.916 452.688,234.916 452.688,151.963 443.759,152.334 443.017,187.632 
				422.556,187.632 422.556,146.754 			"/>
		</g>
		<g>
			<path fill="none" stroke="#FFFF00" stroke-width="3" stroke-miterlimit="10" d="M608.925,139.687h-22.32l1.116,45.011
				l-4.836,0.372l-21.576-17.855l-17.484,0.372l-22.32,17.855l-2.232-19.344l-11.159-14.136l-33.479,0.744l-7.812,7.516v50.143
				l14.508,14.135h-14.508v10.416h115.318v-9.299l-15.252,0.372l17.111-18.228l2.604-10.416h1.86v37.571h21.947l14.508-16.482
				l1.116-58.213L608.925,139.687z M496.583,206.646l-8.556,7.812v-42.035h11.159L496.583,206.646z M510.346,224.129l12.276-9.672
				v-12.276l20.831,21.948H510.346z M560.194,208.505H546.43v-23.063l13.764,1.86V208.505z M617.108,196.974l-7.812,13.392h-8.556
				v-44.267l16.368,13.019V196.974z"/>
			<path fill="#ED1C24" stroke="#FFFF00" stroke-width="3" stroke-miterlimit="10" d="M608.925,139.687h-22.32l1.116,45.011
				l-4.836,0.372l-21.576-17.855l-17.484,0.372l-22.32,17.855l-2.232-19.344l-11.159-14.136l-33.479,0.744l-7.812,7.516v50.143
				l14.508,14.135h-14.508v10.416h115.318v-9.299l-15.252,0.372l17.111-18.228l2.604-10.416h1.86v37.571h21.947l14.508-16.482
				l1.116-58.213L608.925,139.687z M496.583,206.646l-8.556,7.812v-42.035h11.159L496.583,206.646z M510.346,224.129l12.276-9.672
				v-12.276l20.831,21.948H510.346z M560.194,208.505H546.43v-23.063l13.764,1.86V208.505z M617.108,196.974l-7.812,13.392h-8.556
				v-44.267l16.368,13.019V196.974z"/>
		</g>
	</g>
</g>
</svg>
