<?xml version="1.0" encoding="utf-8"?>
<!-- Generator: Adobe Illustrator 17.0.0, SVG Export Plug-In . SVG Version: 6.00 Build 0)  -->
<!DOCTYPE svg PUBLIC "-//W3C//DTD SVG 1.1//EN" "http://www.w3.org/Graphics/SVG/1.1/DTD/svg11.dtd">
<svg version="1.1" id="Layer_1" xmlns="http://www.w3.org/2000/svg" xmlns:xlink="http://www.w3.org/1999/xlink" x="0px" y="0px"
	 width="792px" height="612px" viewBox="0 0 792 612" enable-background="new 0 0 792 612" xml:space="preserve">
<path d="M233.19,484.884"/>
<g>
	<g>
		<polygon fill="#FF7300" points="646.52,147.241 776.719,121.906 656.86,163.114 717.593,196.789 617.453,165.488 654.291,110.032 
					"/>
		<polygon fill="#FF7300" points="648.019,151.584 778.219,126.249 658.359,167.457 719.092,201.132 618.953,169.831 
			655.79,114.374 		"/>
		<polygon fill="#F2F200" points="653.943,150.997 760.084,130.343 662.372,163.937 711.882,191.389 630.247,165.872 
			660.277,120.662 		"/>
		<polygon fill="#F2F200" points="647.843,157.59 790,129.928 659.132,174.921 725.443,211.688 616.107,177.512 656.327,116.963 		
			"/>
	</g>
	<g>
		<path fill="#8E5928" stroke="#020202" stroke-miterlimit="10" d="M268.013,261.504c0,0-31.886-13.308-32.68,20.65
			c0,0,11.218-0.295-15.478,67.827c0,0-41.156,108.018-25.544,141.61l105.946-27.832c0,0-42.032-98.175,10.19-125.828
			C310.447,337.93,321.468,302.99,268.013,261.504z"/>
		<path d="M194.311,491.59c0,0,14.755-28.679,105.946-27.832C300.257,463.758,297.417,481.613,194.311,491.59z"/>
		<path fill="#663914" stroke="#020202" stroke-miterlimit="10" d="M274.435,452.822c0,0-39.192,6.221-60.029,10.857
			c0,0,8.261-102.936,22.971-124.671c0,0,4.483-20.753,22.186-18.752c0,0,17.166,3.832,11.423,24.811
			C270.988,345.067,267.71,422.825,274.435,452.822z"/>
		<circle cx="252.415" cy="376.604" r="8.105"/>
		
			<linearGradient id="SVGID_1_" gradientUnits="userSpaceOnUse" x1="459.614" y1="500.7776" x2="464.2291" y2="153.4975" gradientTransform="matrix(0.984 -0.178 -0.178 -0.984 69.0821 676.6956)">
			<stop  offset="0.0025" style="stop-color:#494647"/>
			<stop  offset="0.5594" style="stop-color:#FFFFFF"/>
			<stop  offset="0.8298" style="stop-color:#787676"/>
			<stop  offset="1" style="stop-color:#000000"/>
		</linearGradient>
		<path fill="url(#SVGID_1_)" stroke="#020202" stroke-miterlimit="10" d="M630.272,147.433l-6.534-9.223l-21.061-1.393l-0.16,8.699
			L472.08,167.372l-4.501-0.92l-103.338,13.487l-4.573-6.109l-29.385,5.314l-5.207,19.149c0,0-12.513-2.072-14.201,7.771
			l-13.888-0.09c0,0-43.241,3.485-5.602,8.816c0,0,15.221,12.188,8.343,22.102c0,0-35.644,17.533-31.715,24.609l42.434,76.427
			c0,0,22.721-8.603,39.044,14.536c0,0,15.457,51.906,97.466-2.809c0,0,16.193-15.934,8.136-50.892c0,0,15.353-15.782,30.233-15.005
			l-0.706-61.431l148.603-26.876c0,0,7.1-3.885,2.304-16.023c0,0,0.478-0.859,1.093-2.324
			C638.991,171.45,643.396,156.763,630.272,147.433z M413.218,359.661c0,0-44.186,19.354-57.245-19.297
			c0,0-3.618-15.215,7.072-23.218c0,0,13.665-5.94,21.972,6.43c0,0,13.478,31.377,38.669,22.051c0,0-37.392-0.607-28.121-40.433
			c0,0,31.073-15.157,51.731,7.984C447.296,313.18,452.914,344.245,413.218,359.661z"/>
		
			<linearGradient id="SVGID_2_" gradientUnits="userSpaceOnUse" x1="311.9512" y1="223.9662" x2="311.9512" y2="179.7821" gradientTransform="matrix(0.984 -0.178 0.178 0.984 -39.8722 74.5097)">
			<stop  offset="0.0025" style="stop-color:#494647"/>
			<stop  offset="0.5594" style="stop-color:#FFFFFF"/>
			<stop  offset="0.8298" style="stop-color:#787676"/>
			<stop  offset="1" style="stop-color:#000000"/>
		</linearGradient>
		<path fill="url(#SVGID_2_)" stroke="#020202" stroke-miterlimit="10" d="M299.727,236.894c0,0,8.121-18.063-21.913-23.983
			c0,0-10.472-6.35,22.826-6.913l10.234,0.066c0,0-0.521-9.781,14.201-7.771C325.076,198.295,319.769,225.503,299.727,236.894z"/>
	</g>
</g>
<g id="Layer_1_1_">
	<g>
		<g>
			<path fill="none" stroke="#FFFF00" stroke-width="4" stroke-miterlimit="10" d="M295.688,303.859l-0.886-19.498l-25.702,0.886
				l28.361-36.781l0.886-23.487h-64.699l-0.886,19.498l-15.067,18.612l-18.612-36.338h-23.486l-14.624-16.839H128.18l-17.726,26.589
				l1.773,47.859l20.384,17.726H98.047l2.659-46.087l-24.817-20.385l12.408-15.067l-1.773-31.02l-42.542-5.318l7.976,85.083H47.97
				l3.988,43.428h20.385l16.839-7.09l10.635,7.09h207.392v-7.977L295.688,303.859z M67.664,292.08l-0.638-30.763
				C93.813,281.279,67.664,292.08,67.664,292.08z M62.595,221.434v-15.067h8.282l3.851,11.522L62.595,221.434z M148.159,279.376
				h-9.174v-39.883c0,0,1.571-10.089,9.174,0C164.114,260.664,148.159,279.376,148.159,279.376z M199.084,297.655h-42.542
				c23.93-4.431,26.589-49.189,26.589-49.189l15.953,24.595L199.084,297.655L199.084,297.655z M244.284,301.2h-14.18v-22.157
				l21.714-31.266h21.714l-29.247,36.584V301.2H244.284z"/>
			<path fill="#ED1C24" stroke="#FFFF00" stroke-width="4" stroke-miterlimit="10" d="M295.688,303.859l-0.886-19.498l-25.702,0.886
				l28.361-36.781l0.886-23.487h-64.699l-0.886,19.498l-15.067,18.612l-18.612-36.338h-23.486l-14.624-16.839H128.18l-17.726,26.589
				l1.773,47.859l20.384,17.726H98.047l2.659-46.087l-24.817-20.385l12.408-15.067l-1.773-31.02l-42.542-5.318l7.976,85.083H47.97
				l3.988,43.428h20.385l16.839-7.09l10.635,7.09h207.392v-7.977L295.688,303.859z M67.664,292.08l-0.638-30.763
				C93.813,281.279,67.664,292.08,67.664,292.08z M62.595,221.434v-15.067h8.282l3.851,11.522L62.595,221.434z M148.159,279.376
				h-9.174v-39.883c0,0,1.571-10.089,9.174,0C164.114,260.664,148.159,279.376,148.159,279.376z M199.084,297.655h-42.542
				c23.93-4.431,26.589-49.189,26.589-49.189l15.953,24.595L199.084,297.655L199.084,297.655z M244.284,301.2h-14.18v-22.157
				l21.714-31.266h21.714l-29.247,36.584V301.2H244.284z"/>
		</g>
		<g>
			<polygon fill="none" stroke="#FFFF00" stroke-width="4" stroke-miterlimit="10" points="342.513,188.043 342.513,250.289 
				362.091,250 361.557,224.424 441.994,251.71 441.994,181.359 417.835,189.464 418.119,226.414 			"/>
			<polygon fill="#ED1C24" stroke="#FFFF00" stroke-width="4" stroke-miterlimit="10" points="342.513,188.043 342.513,250.289 
				362.091,250 361.557,224.424 441.994,251.71 441.994,181.359 417.835,189.464 418.119,226.414 			"/>
		</g>
		<g>
			<polygon fill="none" stroke="#FFFF00" stroke-width="4" stroke-miterlimit="10" points="335.409,263.222 335.409,280.56 
				345.072,280.56 345.072,312.677 365.536,312.677 365.536,281.412 375.51,281.248 375.372,312.721 394.638,312.634 
				394.304,294.449 407.617,294.225 407.887,312.677 447.963,312.721 447.963,302.773 427.214,302.445 427.214,293.35 
				447.963,293.066 447.963,285.676 427.214,285.676 427.214,277.717 447.395,277.433 446.882,263.222 407.617,263.222 
				407.839,282.562 388.546,282.365 388.487,263.222 			"/>
			<polygon fill="#ED1C24" stroke="#FFFF00" stroke-width="4" stroke-miterlimit="10" points="335.409,263.222 335.409,280.56 
				345.072,280.56 345.072,312.677 365.536,312.677 365.536,281.412 375.51,281.248 375.372,312.721 394.638,312.634 
				394.304,294.449 407.617,294.225 407.887,312.677 447.963,312.721 447.963,302.773 427.214,302.445 427.214,293.35 
				447.963,293.066 447.963,285.676 427.214,285.676 427.214,277.717 447.395,277.433 446.882,263.222 407.617,263.222 
				407.839,282.562 388.546,282.365 388.487,263.222 			"/>
		</g>
		<g>
			<polygon fill="none" stroke="#FFFF00" stroke-width="4" stroke-miterlimit="10" points="486.065,199.582 486.065,312.721 
				501.341,312.721 501.341,266.821 524.733,266.821 524.733,312.721 538.577,312.721 538.577,206.266 527.119,206.743 
				526.166,252.041 499.909,252.041 499.909,199.582 			"/>
			<polygon fill="#ED1C24" stroke="#FFFF00" stroke-width="4" stroke-miterlimit="10" points="486.065,199.582 486.065,312.721 
				501.341,312.721 501.341,266.821 524.733,266.821 524.733,312.721 538.577,312.721 538.577,206.266 527.119,206.743 
				526.166,252.041 499.909,252.041 499.909,199.582 			"/>
		</g>
		<g>
			<path fill="none" stroke="#FFFF00" stroke-width="4" stroke-miterlimit="10" d="M739.077,190.512h-28.643l1.432,57.763
				l-6.206,0.477l-27.688-22.914l-22.437,0.477l-28.643,22.914l-2.864-24.824l-14.321-18.141l-42.964,0.955l-10.025,9.645v64.349
				l18.618,18.14h-18.618v13.367h147.988v-11.934l-19.573,0.477l21.959-23.392l3.342-13.367h2.387v48.215h28.165l18.618-21.151
				l1.432-74.705L739.077,190.512z M594.908,276.441l-10.98,10.025v-53.944h14.321L594.908,276.441z M612.57,298.877l15.754-12.412
				v-15.754l26.733,28.166H612.57z M676.54,278.827h-17.663V249.23l17.663,2.387V278.827z M749.578,264.029l-10.025,17.186h-10.98
				v-56.808l21.005,16.708V264.029z"/>
			<path fill="#ED1C24" stroke="#FFFF00" stroke-width="4" stroke-miterlimit="10" d="M739.077,190.512h-28.643l1.432,57.763
				l-6.206,0.477l-27.688-22.914l-22.437,0.477l-28.643,22.914l-2.864-24.824l-14.321-18.141l-42.964,0.955l-10.025,9.645v64.349
				l18.618,18.14h-18.618v13.367h147.988v-11.934l-19.573,0.477l21.959-23.392l3.342-13.367h2.387v48.215h28.165l18.618-21.151
				l1.432-74.705L739.077,190.512z M594.908,276.441l-10.98,10.025v-53.944h14.321L594.908,276.441z M612.57,298.877l15.754-12.412
				v-15.754l26.733,28.166H612.57z M676.54,278.827h-17.663V249.23l17.663,2.387V278.827z M749.578,264.029l-10.025,17.186h-10.98
				v-56.808l21.005,16.708V264.029z"/>
		</g>
	</g>
</g>
</svg>
