<?xml version="1.0" encoding="utf-8"?>
<!-- Generator: Adobe Illustrator 17.0.0, SVG Export Plug-In . SVG Version: 6.00 Build 0)  -->
<!DOCTYPE svg PUBLIC "-//W3C//DTD SVG 1.1//EN" "http://www.w3.org/Graphics/SVG/1.1/DTD/svg11.dtd">
<svg version="1.1" id="Layer_1" xmlns="http://www.w3.org/2000/svg" xmlns:xlink="http://www.w3.org/1999/xlink" x="0px" y="0px"
	 width="792px" height="612px" viewBox="0 0 792 612" enable-background="new 0 0 792 612" xml:space="preserve">
<path d="M135,479"/>
<g>
	<g>
		<polygon fill="#FF7300" points="587.548,131.102 740.152,101.407 599.667,149.707 670.851,189.176 553.48,152.489 596.656,87.49 
					"/>
		<polygon fill="#FF7300" points="589.305,136.193 741.91,106.498 601.424,154.797 672.608,194.266 555.237,157.579 598.413,92.58 
					"/>
		<polygon fill="#F2F200" points="596.248,135.504 720.654,111.296 606.128,150.671 664.158,182.847 568.475,152.939 603.673,99.95 
					"/>
		<polygon fill="#F2F200" points="589.099,143.232 755.718,110.81 602.331,163.545 680.052,206.639 551.902,166.582 599.043,95.614 
					"/>
	</g>
	<g>
		<path fill="#8E5928" stroke="#020202" stroke-miterlimit="10" d="M143.908,265.027c0,0-37.373-15.598-38.304,24.203
			c0,0,13.148-0.346-18.141,79.498c0,0-48.238,126.606-29.939,165.978l124.177-32.621c0,0-49.265-115.069,11.944-147.48
			C193.644,354.605,206.562,313.652,143.908,265.027z"/>
		<path d="M57.524,534.706c0,0,17.294-33.614,124.177-32.621C181.701,502.085,178.372,523.012,57.524,534.706z"/>
		<path fill="#663914" stroke="#020202" stroke-miterlimit="10" d="M151.436,489.267c0,0-45.936,7.292-70.359,12.725
			c0,0,9.683-120.649,26.924-146.124c0,0,5.255-24.324,26.004-21.979c0,0,20.12,4.491,13.389,29.081
			C147.395,362.97,143.553,454.108,151.436,489.267z"/>
		<circle cx="125.626" cy="399.934" r="9.5"/>
		
			<linearGradient id="SVGID_1_" gradientUnits="userSpaceOnUse" x1="369.4451" y1="71.7187" x2="374.8544" y2="478.7581" gradientTransform="matrix(0.984 -0.178 0.178 0.984 -39.9509 73.4066)">
			<stop  offset="0.0025" style="stop-color:#494647"/>
			<stop  offset="0.5594" style="stop-color:#FFFFFF"/>
			<stop  offset="0.8298" style="stop-color:#787676"/>
			<stop  offset="1" style="stop-color:#000000"/>
		</linearGradient>
		<path fill="url(#SVGID_1_)" stroke="#020202" stroke-miterlimit="10" d="M568.504,131.327l-7.658-10.81l-24.685-1.633
			l-0.188,10.196l-152.882,25.617l-5.276-1.078l-121.12,15.808l-5.36-7.16l-34.441,6.229l-6.103,22.444
			c0,0-14.666-2.429-16.645,9.108l-16.278-0.105c0,0-50.682,4.085-6.566,10.333c0,0,17.84,14.285,9.779,25.905
			c0,0-41.778,20.55-37.172,28.844l49.736,89.578c0,0,26.631-10.083,45.763,17.037c0,0,18.117,60.838,114.238-3.292
			c0,0,18.979-18.676,9.536-59.649c0,0,17.995-18.498,35.436-17.587l-0.827-72.002l174.174-31.501c0,0,8.322-4.554,2.701-18.78
			c0,0,0.56-1.007,1.281-2.724C578.724,159.477,583.887,142.263,568.504,131.327z M314.1,380.075c0,0-51.79,22.684-67.096-22.618
			c0,0-4.241-17.833,8.289-27.213c0,0,16.017-6.962,25.753,7.537c0,0,15.797,36.776,45.323,25.846c0,0-43.826-0.712-32.96-47.391
			c0,0,36.42-17.765,60.633,9.358C354.042,325.596,360.627,362.006,314.1,380.075z"/>
		
			<linearGradient id="SVGID_2_" gradientUnits="userSpaceOnUse" x1="196.3515" y1="409.1336" x2="196.3515" y2="460.9209" gradientTransform="matrix(0.984 -0.178 -0.178 -0.984 69.1448 676.6207)">
			<stop  offset="0.0025" style="stop-color:#494647"/>
			<stop  offset="0.5594" style="stop-color:#FFFFFF"/>
			<stop  offset="0.8298" style="stop-color:#787676"/>
			<stop  offset="1" style="stop-color:#000000"/>
		</linearGradient>
		<path fill="url(#SVGID_2_)" stroke="#020202" stroke-miterlimit="10" d="M181.08,236.183c0,0,9.519-21.171-25.684-28.11
			c0,0-12.274-7.443,26.754-8.102l11.995,0.077c0,0-0.611-11.464,16.645-9.108C210.791,190.941,204.571,222.831,181.08,236.183z"/>
	</g>
</g>
</svg>
